<svg id="Layer_1" data-name="Layer 1" xmlns="http://www.w3.org/2000/svg" xmlns:xlink="http://www.w3.org/1999/xlink" viewBox="0 0 81.44 125.8"><defs><style>.cls-1{font-size:26.42px;fill:#636464;font-family:Lato-Bold, Lato;font-weight:700;letter-spacing:0.11em;}.cls-2{font-size:13px;fill:#40403f;font-family:Raleway-Medium, Raleway;font-weight:500;letter-spacing:0.33em;}.cls-3{letter-spacing:0.3em;}.cls-4{fill:url(#linear-gradient);}.cls-5,.cls-8{opacity:0.2;}.cls-5{fill:url(#linear-gradient-2);}.cls-6{fill:url(#linear-gradient-3);}.cls-7{fill:url(#linear-gradient-4);}.cls-8{fill:url(#linear-gradient-5);}.cls-9{fill:url(#linear-gradient-6);}</style><linearGradient id="linear-gradient" x1="88.87" y1="99.79" x2="29.8" y2="1" gradientUnits="userSpaceOnUse"><stop offset="0" stop-color="#69cef2" stop-opacity="0.7"/><stop offset="0.37" stop-color="#33afe2" stop-opacity="0.91"/><stop offset="0.53" stop-color="#1ba1db"/><stop offset="0.62" stop-color="#1c9fd8"/><stop offset="0.69" stop-color="#1e98cd"/><stop offset="0.76" stop-color="#238ebc"/><stop offset="0.83" stop-color="#297ea4"/><stop offset="0.9" stop-color="#316b84"/><stop offset="0.96" stop-color="#3a535e"/><stop offset="1" stop-color="#414142"/></linearGradient><linearGradient id="linear-gradient-2" x1="65.62" y1="44.15" x2="52.78" y2="75.8" gradientUnits="userSpaceOnUse"><stop offset="0" stop-color="#1ba1db"/><stop offset="0.33" stop-color="#2a7a9e"/><stop offset="0.64" stop-color="#375b6c"/><stop offset="0.87" stop-color="#3e484d"/><stop offset="1" stop-color="#414142"/></linearGradient><linearGradient id="linear-gradient-3" x1="99.63" y1="-170.85" x2="59.05" y2="-74.6" gradientTransform="translate(-15.76 172.58) rotate(-3.5)" gradientUnits="userSpaceOnUse"><stop offset="0" stop-color="#69cef2" stop-opacity="0.5"/><stop offset="0.2" stop-color="#4ebeea" stop-opacity="0.68"/><stop offset="0.53" stop-color="#1ba1db"/><stop offset="0.59" stop-color="#1d9dd5"/><stop offset="0.67" stop-color="#2192c3"/><stop offset="0.76" stop-color="#2880a7"/><stop offset="0.87" stop-color="#32677f"/><stop offset="0.98" stop-color="#3f474c"/><stop offset="1" stop-color="#414142"/></linearGradient><linearGradient id="linear-gradient-4" x1="37.43" y1="85.22" x2="12.34" y2="-9.66" gradientUnits="userSpaceOnUse"><stop offset="0" stop-color="#595a5c"/><stop offset="0.02" stop-color="#656d56"/><stop offset="0.05" stop-color="#788a4d"/><stop offset="0.09" stop-color="#88a246"/><stop offset="0.14" stop-color="#94b440"/><stop offset="0.19" stop-color="#9dc13c"/><stop offset="0.25" stop-color="#a2c93a"/><stop offset="0.39" stop-color="#a3cb39"/><stop offset="0.62" stop-color="#a3cb39" stop-opacity="0.77"/><stop offset="0.84" stop-color="#a3cb39" stop-opacity="0.57"/><stop offset="0.96" stop-color="#a3cb39" stop-opacity="0.5"/></linearGradient><linearGradient id="linear-gradient-5" x1="33.29" y1="16.27" x2="7.82" y2="53.2" gradientUnits="userSpaceOnUse"><stop offset="0" stop-color="#595a5c"/><stop offset="0.28" stop-color="#74834f"/><stop offset="0.6" stop-color="#8eaa43"/><stop offset="0.85" stop-color="#9dc23c"/><stop offset="1" stop-color="#a3cb39"/></linearGradient><linearGradient id="linear-gradient-6" x1="53.57" y1="12.83" x2="16.24" y2="59.83" gradientUnits="userSpaceOnUse"><stop offset="0.04" stop-color="#595a5c"/><stop offset="0.04" stop-color="#595a5c"/><stop offset="0.1" stop-color="#707d51"/><stop offset="0.16" stop-color="#829948"/><stop offset="0.22" stop-color="#91af42"/><stop offset="0.29" stop-color="#9bbf3d"/><stop offset="0.37" stop-color="#a1c83a"/><stop offset="0.49" stop-color="#a3cb39"/><stop offset="0.7" stop-color="#a3cb39" stop-opacity="0.78"/><stop offset="0.96" stop-color="#a3cb39" stop-opacity="0.5"/></linearGradient></defs><title>Medisquare_logo-final</title><text class="cls-1" transform="translate(1.77 110.03)">MEDI</text><text class="cls-2" transform="translate(2.95 122.87)">SQ<tspan class="cls-3" x="26.19" y="0">U</tspan><tspan x="39.92" y="0">ARE</tspan></text><path class="cls-4" d="M82.35,64.07A100.09,100.09,0,0,1,64.79,43.73c-1-1.43-1.88-2.88-2.73-4.39a57.2,57.2,0,0,1-7.73-25.71c0,.19,0-.64,0-.45,0-1.66-.16-3.33-.1-5-.16.23-.31.46-.46.7L53,10.19c-9.23,15-11.29,33.18-5.68,50.73A59.61,59.61,0,0,0,62.08,85,99.54,99.54,0,0,0,82.35,64.07Z" transform="translate(-2.25 -1)"/><path class="cls-5" d="M64.79,43.73c-.18-.26-.34-.53-.51-.79-.71,1.21-1.39,2.44-2,3.71A57.32,57.32,0,0,0,56,72.76c0-.19,0,.63,0,.44,0,.28,0,.55,0,.83a60.79,60.79,0,0,1,5.21-19.69c.24-.52.49-1,.74-1.57q1.15-2.33,2.48-4.53c.52-.87,1.07-1.72,1.64-2.56C65.67,45,65.22,44.39,64.79,43.73Z" transform="translate(-2.25 -1)"/><path class="cls-6" d="M81.14,20.81a100.43,100.43,0,0,0-16.39,21.3,51.07,51.07,0,0,0-2.48,4.54A62.77,62.77,0,0,0,56,72.76c0-.19,0,.63,0,.44,0,1.66,0,3.33.18,5-.18-.22-.34-.44-.5-.67-.3-.42-.59-.83-.88-1.26a61.2,61.2,0,0,1-8.58-50.34A62.43,62.43,0,0,1,59.73,1.07,99.63,99.63,0,0,1,81.14,20.81Z" transform="translate(-2.25 -1)"/><path class="cls-7" d="M3.69,20.63A100.66,100.66,0,0,1,20,42c.88,1.49,1.7,3,2.46,4.55A57.16,57.16,0,0,1,28.58,72.7c0-.19,0,.63,0,.44-.05,1.66,0,3.34-.21,5,.18-.22.34-.44.51-.67l.88-1.25c10.14-14.42,13.14-32.32,8.68-50.28A58.69,58.69,0,0,0,25.2,1,99.6,99.6,0,0,0,3.69,20.63Z" transform="translate(-2.25 -1)"/><path class="cls-8" d="M20,42l.47.82c.78-1.17,1.53-2.35,2.23-3.58a57.2,57.2,0,0,0,7.85-25.67c0,.19,0-.64,0-.45,0-.27,0-.55,0-.83a60.32,60.32,0,0,1-6.41,19.33c-.27.52-.55,1-.83,1.53-.86,1.5-1.78,3-2.75,4.38-.58.83-1.18,1.64-1.79,2.44C19.18,40.66,19.59,41.33,20,42Z" transform="translate(-2.25 -1)"/><path class="cls-9" d="M2.25,63.89A100.12,100.12,0,0,0,19.91,43.63c1-1.42,1.9-2.87,2.76-4.38a57.2,57.2,0,0,0,7.85-25.67c0,.19,0-.64,0-.45.06-1.66.18-3.32.13-5,.16.23.31.47.46.71.27.43.54.86.8,1.3a62.61,62.61,0,0,1,5.48,50.77,61.09,61.09,0,0,1-15,24A99.75,99.75,0,0,1,2.25,63.89Z" transform="translate(-2.25 -1)"/></svg>